<svg width="32" height="32" viewBox="0 0 32 32" fill="none" xmlns="http://www.w3.org/2000/svg">
<circle cx="16" cy="16" r="16" fill="#262626"/>
<path d="M9.9375 15.7002V21.3252C9.9375 21.8427 10.3584 22.2627 10.875 22.2627H15.5625V15.7002H9.9375Z" fill="white"/>
<path d="M23.0625 11.9507H20.0963C20.3091 11.8054 20.4919 11.661 20.6194 11.5316C21.3759 10.7713 21.3759 9.53383 20.6194 8.77352C19.8844 8.03289 18.6038 8.03477 17.8697 8.77352C17.4628 9.18133 16.3847 10.8416 16.5338 11.9507H16.4663C16.6144 10.8416 15.5363 9.18133 15.1303 8.77352C14.3953 8.03477 13.1147 8.03477 12.3806 8.77352C11.625 9.53383 11.625 10.7713 12.3797 11.5316C12.5081 11.661 12.6909 11.8054 12.9038 11.9507H9.9375C9.42094 11.9507 9 12.3716 9 12.8882V14.2945C9 14.5532 9.21 14.7632 9.46875 14.7632H15.5625V12.8882H17.4375V14.7632H23.5312C23.79 14.7632 24 14.5532 24 14.2945V12.8882C24 12.3716 23.58 11.9507 23.0625 11.9507ZM15.5072 11.9198C15.5072 11.9198 15.4678 11.9507 15.3338 11.9507C14.6859 11.9507 13.4494 11.2776 13.0453 10.8707C12.6525 10.4751 12.6525 9.83008 13.0453 9.43445C13.2356 9.2432 13.4878 9.1382 13.7559 9.1382C14.0231 9.1382 14.2753 9.2432 14.4656 9.43445C15.0975 10.0701 15.7256 11.6938 15.5072 11.9198ZM17.6653 11.9507C17.5322 11.9507 17.4928 11.9207 17.4928 11.9198C17.2744 11.6938 17.9025 10.0701 18.5344 9.43445C18.9122 9.05289 19.5731 9.05102 19.9547 9.43445C20.3484 9.83008 20.3484 10.4751 19.9547 10.8707C19.5506 11.2776 18.3141 11.9507 17.6653 11.9507Z" fill="white"/>
<path d="M17.4375 15.7002V22.2627H22.125C22.6425 22.2627 23.0625 21.8427 23.0625 21.3252V15.7002H17.4375Z" fill="white"/>
</svg>
