<svg width="48" height="67" viewBox="0 0 48 67" fill="none" xmlns="http://www.w3.org/2000/svg">
<g id="Group">
<g id="Group_2">
<path id="Vector" d="M0 23.9999C0 10.7663 10.7663 0 24 0C37.2335 0 47.9997 10.7663 48 23.9999C48 40.4231 26.5224 64.5334 25.6079 65.5518C24.7506 66.5067 23.251 66.5084 22.3921 65.5518C21.4776 64.5334 0 40.4231 0 23.9999Z" fill="#CA0100"/>
</g>
<g id="Group 3442">
<path id="Vector_2" d="M27.2652 13.7044C30.112 19.9003 32.9818 26.0962 35.8516 32.3376C35.9434 32.2465 36.0123 32.1781 36.0812 32.1098C36.9306 30.8342 37.5505 29.4902 37.9637 28.0096C38.3311 26.7112 38.5147 25.39 38.4688 24.0688C38.3999 21.0165 37.4357 18.2374 35.5761 15.8001C34.4741 14.3422 33.1195 13.1577 31.5584 12.2238C30.3416 11.4948 29.0329 10.9254 27.6095 10.6292C27.38 10.5837 27.1504 10.5381 26.9208 10.4926C26.7601 10.447 26.6682 10.5154 26.5994 10.652C26.0025 11.8138 25.4055 12.9755 24.8086 14.16C23.7755 16.1873 22.7424 18.1919 21.7322 20.2192C20.9516 21.7454 20.171 23.2943 19.3905 24.8205C18.4721 26.6201 17.5538 28.4424 16.6125 30.2419C15.9467 31.5631 15.2809 32.8843 14.5922 34.2055C14.4774 34.4333 14.5003 34.5699 14.707 34.7294C15.1202 35.0483 15.5335 35.39 15.9237 35.7089C16.0615 35.8228 16.1304 35.8 16.2222 35.6405C16.888 34.3194 17.5308 32.9982 18.1966 31.677C19.115 29.8319 20.0562 27.964 20.9746 26.1189C21.8929 24.2511 22.8342 22.406 23.7525 20.5381C24.7397 18.5791 25.727 16.6201 26.6912 14.6383C26.8519 14.3194 26.9897 14.0233 27.1504 13.7044C27.2192 13.7044 27.2422 13.7044 27.2652 13.7044Z" fill="white"/>
<path id="Vector_3" d="M12.8714 32.4052C13.0551 32.0636 13.2158 31.7446 13.3995 31.403C14.6392 28.9428 15.879 26.4827 17.1187 24.0454C18.1977 21.9041 19.2538 19.7629 20.3329 17.6217C21.4119 15.4577 22.5139 13.2937 23.5929 11.1069C23.7077 10.9019 23.8225 10.6741 23.9144 10.4691C24.0062 10.2641 23.9603 10.173 23.7307 10.2185C22.8812 10.3324 22.0088 10.4008 21.1594 10.583C18.9324 11.0613 16.981 12.0636 15.2361 13.4987C13.4913 14.9338 12.1827 16.7105 11.2873 18.7834C10.7592 20.0135 10.4149 21.2891 10.2542 22.6103C10.1164 23.9542 10.1164 25.2754 10.346 26.6194C10.6445 28.3961 11.2643 30.0362 12.1827 31.5624C12.3204 31.813 12.4811 32.0408 12.6418 32.2686C12.6877 32.3369 12.7107 32.4052 12.7337 32.4736C12.8025 32.4508 12.8485 32.428 12.8714 32.4052Z" fill="white"/>
<path id="Vector_4" d="M33.4644 34.0461C32.7986 32.611 32.1328 31.1532 31.4671 29.6953H22.0771C21.5261 30.7887 20.9521 31.8821 20.4241 32.9983C19.8272 34.2055 19.2762 35.4356 18.7022 36.6657C18.5415 37.0074 18.5874 37.0529 18.9318 37.1668C19.6665 37.3946 20.3782 37.6679 21.1358 37.8274C22.5133 38.1463 23.9138 38.2374 25.3372 38.078C25.98 38.0096 26.6228 37.9641 27.2427 37.8046C28.1611 37.5541 29.0794 37.2351 29.9748 36.8479C31.2375 36.3012 32.3395 35.5039 33.3496 34.6156C33.5103 34.4106 33.5792 34.2967 33.4644 34.0461Z" fill="white"/>
<path id="Vector_5" d="M30.3157 27.1666C29.8107 26.0276 29.2826 24.9115 28.7775 23.7725C28.2495 22.6336 27.7444 21.5174 27.2164 20.3785C27.1705 20.2646 27.1016 20.1507 27.0097 19.9912C26.7802 20.424 26.5965 20.7885 26.4128 21.1529C26.2292 21.5174 26.0455 21.9046 25.8389 22.2691C25.0124 23.9092 24.1859 25.5493 23.3594 27.1666H30.3157Z" fill="white"/>
</g>
</g>
</svg>
