<svg xmlns="http://www.w3.org/2000/svg" width="769" height="440" viewBox="0 0 769 440" fill="none">
  <path d="M44.099 416.628C43.5195 415.875 42.0705 418.194 41.0272 418.078C39.984 417.962 38.3612 417.962 38.4191 413.961C38.4191 412.86 37.4338 412.976 37.3179 411.99C37.144 411.004 37.6657 408.395 37.0861 407.7C36.5065 406.946 35.1734 407.12 35.2314 406.424C35.2894 405.67 35.5212 404.511 34.7098 403.583C33.8404 402.598 33.9563 401.612 33.1449 400.858C32.3335 400.105 33.2608 399.003 33.6665 398.945C34.0722 398.829 34.9996 396.394 33.8984 395.814C32.3914 395.061 33.5506 393.901 32.1596 392.626C30.7686 391.35 30.3049 391.872 29.1458 390.422C27.9866 388.973 27.0013 389.379 24.9728 388.451C23.0022 387.523 22.9442 384.972 23.1181 383.349C23.292 381.726 21.843 382.711 21.3794 381.378C20.9157 380.044 22.4226 379.523 20.1622 377.609C18.5974 376.276 19.3508 375.522 18.6553 374.247C17.9598 372.913 15.3517 373.725 13.8448 371.348C12.3379 368.971 12.2219 365.956 11.0628 364.68C9.9036 363.405 8.62852 362.013 7.70118 361.144C6.77385 360.216 5.55672 360.506 4.80326 359.578C4.10776 358.651 4.51347 355.346 4.62939 353.317C4.7453 351.287 5.03509 346.475 3.52818 344.91C1.9633 343.286 2.48493 340.909 2.71676 340.04C2.94859 339.17 0.746174 339.228 0.398424 337.315C0.0506736 335.402 1.2678 334.938 1.2678 334.358C1.2678 333.778 0.398424 332.85 0.398424 332.155C0.398424 331.459 1.84738 330.705 2.6588 331.053C3.47022 331.401 4.39755 333.546 5.38285 333.72C6.94772 333.952 8.22281 331.343 9.26606 331.053C10.3093 330.763 14.4244 330.763 14.888 331.401C15.3517 332.039 16.8006 332.213 16.8006 330.531C16.8006 328.85 17.0325 327.633 16.3949 327.227C15.7574 326.763 15.8733 325.661 16.5688 325.429C17.2643 325.197 18.3076 326.183 18.8871 326.937C19.4667 327.748 20.0463 328.212 20.7418 328.096C21.4953 327.922 20.9736 326.879 22.0169 326.995C23.0602 327.111 23.8716 328.154 25.2046 328.212C26.4797 328.27 26.9434 328.85 27.6389 328.85C28.3923 328.85 29.8992 327.69 29.0299 326.241C28.2184 324.792 26.1319 324.676 25.1467 323.864C23.9875 322.994 23.5238 322.415 23.7556 321.893C23.9875 321.371 26.5377 320.037 28.0446 320.269C28.856 320.385 28.856 321.545 29.7833 321.313C30.7686 321.139 31.1743 319.806 32.6812 322.009C34.1882 324.212 35.5792 325.661 36.5644 325.719C37.5497 325.777 38.2452 323.806 39.1726 323.168C40.0999 322.53 41.8387 322.241 41.8966 320.965C41.9546 319.69 40.6215 319.342 41.433 318.414C42.2444 317.486 44.7945 318.24 45.0843 317.776C45.3741 317.254 44.7366 315.863 45.2582 315.399C45.7219 314.935 49.0255 315.631 49.3733 315.109C49.721 314.588 51.4598 311.979 50.4165 310.993C49.3732 310.007 48.6198 308.384 48.9675 307.63C49.3153 306.819 47.3447 306.007 46.997 304.673C46.6492 303.34 45.49 301.832 44.3888 300.963C43.2876 300.093 42.5342 299.223 42.5921 298.528C42.6501 297.832 43.5774 297.252 43.6354 295.919C43.6933 294.585 42.0125 293.658 41.8966 292.44C41.7807 291.223 38.8248 290.353 37.7236 288.903C36.6804 287.396 37.144 285.715 36.0428 285.135C34.9996 284.555 34.1882 283.106 35.1155 281.888C36.0428 280.671 36.9122 281.018 37.0281 279.801C37.144 278.583 37.6077 275.627 37.0861 274.989C36.5645 274.351 34.7098 273.191 34.7098 271.858C34.7098 270.524 36.2167 269.365 36.9122 269.075C37.6077 268.785 39.2305 267.684 39.4044 267.162C39.5783 266.64 40.5636 264.263 40.4477 263.103C40.3317 261.886 39.6362 259.451 38.4191 258.639C37.202 257.827 35.869 258.001 35.2894 257.364C34.7098 256.726 34.362 254.407 33.4927 254.523C32.6233 254.639 32.1017 257.074 30.7686 255.218C29.3776 253.363 30.9425 251.972 31.58 250.928C32.2176 249.884 35.2894 248.029 35.2894 247.217C35.2894 246.348 36.2747 244.492 37.7816 246.232C39.2305 247.971 38.3612 248.725 39.6942 249.073C41.0272 249.421 40.9693 249.595 41.7807 249.595C42.5921 249.595 43.6933 249.305 44.3888 248.841C45.0843 248.377 44.6786 247.623 44.7945 246.812C44.9105 246 46.1855 244.666 46.1855 243.739C46.1855 242.811 44.6207 242.347 44.6207 241.536C44.6207 240.724 45.6639 239.159 45.7219 237.361C45.7219 235.506 47.3447 231.911 48.4459 230.462C49.5471 229.07 50.4165 229.36 51.112 229.128C51.8075 228.896 52.6189 225.766 54.1258 225.824C55.6328 225.882 54.5315 220.2 52.7348 218.692C51.6916 217.823 50.2426 218.866 50.1847 217.765C50.1267 216.663 51.6336 215.446 51.4018 214.46C51.17 213.474 48.4459 211.503 48.6777 210.17C49.0255 208.256 53.1405 205.821 52.9667 204.314C52.7928 202.807 52.503 202.227 54.3577 201.589C56.2123 201.009 58.009 199.792 58.125 196.719C58.1829 194.806 61.3127 196.197 62.7037 195.327C64.0947 194.458 63.1094 192.834 64.1526 192.023C64.1526 192.023 65.3698 191.907 66.1232 191.269C66.8767 190.631 67.1085 188.602 69.1371 188.66C71.1656 188.718 72.2668 187.964 72.9044 187.326C73.5419 186.689 76.4978 188.776 77.0194 188.08C77.541 187.442 77.3671 185.065 78.6422 185.529C79.9753 185.993 81.3663 187.964 82.1197 188.254C82.8732 188.544 84.6119 188.486 84.8438 189.704C85.0756 190.863 86.2927 194.052 87.5099 193.124C88.727 192.139 89.3066 187.558 87.6258 186.747C85.945 185.935 86.1768 182.572 86.4666 182.398C86.7564 182.224 90.2339 181.935 87.278 180.195C85.887 179.384 85.7132 178.572 85.7132 178.572L113.591 178.978C113.591 178.978 118.054 177.586 118.286 176.659C118.518 175.731 118.749 166.86 119.387 166.281C120.025 165.643 123.154 165.933 124.777 164.251C126.4 162.57 125.82 161.121 126.226 160.251C126.69 159.439 128.371 160.077 128.834 158.28C129.24 156.482 128.371 155.381 130.631 154.859C132.891 154.279 133.239 151.728 134.34 151.786C135.441 151.844 135.557 153.062 136.601 152.714C137.644 152.366 141.875 143.611 142.049 142.394C142.223 141.176 144.657 138.857 145.816 138.567C146.975 138.277 152.597 138.683 152.597 138.683L154.568 134.799L154.684 128.305C154.684 128.305 162.102 124.131 163.783 124.131C165.406 124.131 166.275 125.174 167.203 125.58C168.13 125.986 169.869 126.276 170.854 127.088C171.781 127.957 173.288 128.247 175.085 128.247C176.882 128.247 177.925 130.103 177.403 130.45C176.94 130.798 176.476 129.117 174.911 129.639C173.346 130.103 173.984 132.016 174.1 133.639C174.216 135.321 174.042 135.9 176.186 137.234C178.331 138.509 177.809 141.002 177.925 141.466C178.041 141.93 179.78 142.046 179.896 142.394C180.011 142.742 179.49 145.177 179.838 145.409C180.185 145.699 182.793 147.67 182.735 152.25C182.678 154.569 181.518 156.192 181.518 156.946C181.518 157.7 182.446 158.338 182.62 160.541C182.851 162.686 183.953 163.44 184.648 165.005C186.445 169.179 182.388 177.702 175.607 178.398C168.825 179.094 162.914 175.615 162.45 172.02C161.986 168.426 160.885 169.701 158.915 164.019C157.929 161.179 156.191 158.801 156.306 157.294C156.364 155.787 154.162 154.453 154.336 153.526C154.51 152.598 156.306 151.612 156.306 150.685C156.306 149.757 154.973 148.366 153.988 148.366C153.061 148.366 153.64 149.989 152.829 150.743C152.076 151.438 151.206 151.612 151.206 152.308C151.206 153.004 151.96 153.352 151.902 156.135C151.844 158.917 150.569 158.512 150.569 159.323C150.569 160.135 152.481 161.237 152.481 162.106C152.481 162.976 151.554 165.469 150.684 166.281C149.815 167.092 145.874 168.774 144.715 170.223C143.556 171.673 144.309 173.818 143.498 174.977C142.744 176.195 141.179 176.601 141.121 177.876C141.121 179.152 142.686 182.051 142.628 183.152C142.628 184.254 141.005 185.529 140.947 186.573C140.947 187.095 142.57 188.022 143.787 189.24C145.063 190.515 145.99 192.139 146.512 192.197C147.613 192.197 150.858 189.82 150.858 187.616C150.916 185.413 149.293 184.602 149.293 182.456C149.293 180.311 151.67 178.224 152.597 178.224C153.524 178.224 153.409 179.789 153.409 181.239C153.409 182.688 153.351 185.935 153.872 186.805C154.394 187.732 155.959 189.066 156.654 189.762C157.35 190.457 157.813 193.472 160.711 193.588C163.609 193.762 163.319 191.907 162.972 190.863C162.624 189.82 164.884 189.298 164.884 188.486C164.884 187.616 164.421 185.471 165 184.833C165.58 184.138 167.261 185.529 168.13 185.645C168.999 185.761 170.68 184.428 171.781 184.428C172.883 184.428 174.042 185.761 175.317 185.819C176.534 185.819 178.099 184.602 179.432 184.602C180.707 184.602 183.489 187.732 183.489 188.718C183.489 189.704 182.04 189.878 181.982 192.139C181.924 194.4 181.866 194.69 183.953 192.602C186.039 190.457 187.43 189.472 188.589 189.53C189.748 189.53 192.415 186.051 192.472 183.21C192.53 180.369 197.167 179.152 197.167 177.586C197.167 176.021 199.717 176.601 199.775 172.368C199.891 164.599 200.876 169.991 203.427 172.716C205.977 175.441 206.151 177.412 206.093 180.021C206.035 182.572 205.687 182.978 204.586 182.92C203.485 182.92 202.963 180.949 200.355 180.891C199.312 180.891 198.732 181.703 197.921 181.993C196.761 182.456 195.66 182.688 195.602 184.66C195.544 187.906 196.588 188.544 196.588 190.399C196.588 191.385 198.442 191.849 199.833 192.487C200.992 193.066 201.572 193.936 202.499 193.936C204.47 193.994 204.992 192.66 205.861 192.197C206.73 191.733 205.919 189.53 208.353 189.53C210.845 189.588 210.903 191.211 212.236 191.211C213.511 191.211 212.236 189.414 213.685 189.414C215.134 189.414 215.946 190.051 217.047 190.109C218.148 190.109 219.829 189.298 220.408 189.356C220.988 189.356 226.262 189.936 227.19 191.327C228.117 192.718 228.349 192.834 229.044 192.834C229.74 192.834 229.74 190.805 230.261 190.341C230.783 189.82 232.927 189.414 233.913 189.414C236.057 189.414 236.695 191.733 234.376 191.733C233.565 191.733 233.797 193.24 232.927 193.936C232.058 194.632 230.783 194.226 230.783 194.864C230.783 195.559 233.217 197.357 234.029 197.705C236.753 198.98 238.376 196.545 240.752 196.603C244.519 196.661 245.62 201.125 247.475 201.125C249.33 201.125 249.677 200.082 251.358 200.14C252.981 200.14 253.213 199.038 254.43 199.038C255.705 199.038 257.154 201.531 253.792 202.285C251.996 202.691 254.14 207.039 255.705 207.329C257.27 207.619 255.821 204.082 257.56 204.082C258.429 204.082 259.646 204.604 259.994 204.43C260.284 204.256 259.646 203.386 260.284 202.807C261.327 201.821 262.486 203.328 262.776 201.357C263.066 199.386 261.733 196.197 263.819 195.153C265.906 194.168 267.702 195.617 268.456 196.313C269.209 197.009 269.441 195.733 269.847 195.733C270.253 195.733 285.785 213.706 286.017 215.91C286.249 218.113 285.67 221.128 288.104 221.128C289.321 221.128 290.712 220.606 291.002 219.736C291.292 218.866 290.48 217.707 291.06 216.895C292.219 215.272 293.958 215.214 294.016 213.938C294.016 213.938 290.422 212.721 290.422 210.228C290.422 209.068 291.176 209.242 291.176 207.851C291.176 206.517 287.524 204.662 287.524 203.212C287.524 201.821 291.176 201.763 291.234 197.82C291.292 193.878 293.204 195.154 293.262 192.776C293.32 190.399 291.929 191.501 291.929 190.399C291.929 189.298 293.726 187.674 297.609 186.051C301.492 184.428 303.926 179.673 305.086 176.543C306.245 173.412 307.984 172.02 309.548 173.296C311.113 174.571 312.504 174.108 313.316 174.282C314.127 174.455 314.185 175.963 315.518 176.137C316.909 176.311 317.373 177.644 317.257 179.5C317.141 181.355 315.866 181.993 315.808 183.732C315.808 185.471 311.461 187.442 311.403 192.197C311.345 194.168 313.258 193.704 313.2 196.023C313.142 199.676 309.085 202.807 309.027 205.358C308.969 207.909 305.897 213.996 305.839 217.069C305.781 220.142 308.737 222.171 308.737 223.273C308.737 224.374 305.375 225.882 305.375 227.621C305.375 229.36 304.854 231.332 303.405 231.274C301.956 231.216 296.913 238.289 295.349 238.231C293.726 238.231 293.03 237.419 292.393 237.419C291.755 237.419 291.002 238.985 290.364 238.985C289.727 238.985 286.481 234.81 285.032 235.564C283.583 236.318 285.67 242.115 289.437 243.275C293.204 244.435 293.552 244.435 294.074 244.898C294.653 245.362 295.233 246.406 296.392 246.406C297.551 246.406 297.841 244.435 298.942 243.391C300.043 242.347 308.041 241.536 308.099 238.347C308.157 235.1 313.084 232.723 313.142 229.882C313.2 227.041 310.534 221.649 318.01 221.765C321.082 221.823 323.748 226.172 323.69 228.027C323.69 229.824 321.952 230.462 321.952 232.955C321.952 235.448 323.864 238.985 326.124 239.043C328.385 239.101 329.312 236.434 325.777 235.622C324.328 235.274 324.096 233.419 324.56 232.375C325.197 230.868 326.994 230.056 327.052 228.839C327.052 228.375 326.356 227.331 326.356 226.519C326.356 225.708 327.284 225.534 327.284 224.026C327.284 222.519 324.212 219.968 320.503 218.576C319.285 218.113 318.996 216.025 318.068 216.025C317.083 216.025 316.793 218.518 315.46 218.518C314.069 218.518 314.359 217.069 313.2 217.127C312.099 217.185 311.345 215.967 312.446 214.924C313.548 213.88 313.084 211.213 313.084 210.112C313.084 209.01 315.286 207.503 315.576 205.474C315.866 203.502 318.59 202.865 318.59 201.473C318.59 200.14 316.851 197.183 316.967 195.617C317.257 192.776 315.75 192.602 315.75 191.907C315.75 191.211 319.517 188.022 320.56 187.616C321.604 187.211 323.632 188.196 324.676 185.471C325.777 182.746 325.893 182.282 325.603 181.645C325.313 181.007 324.734 178.804 326.182 178.862C327.805 178.862 326.472 182.572 326.472 185.007C326.414 189.124 323.574 187.5 323.516 192.371C323.458 197.241 327.052 198.922 328.095 198.922C329.138 198.922 329.312 198.052 330.066 198.052C330.819 198.052 333.717 202.691 334.297 202.111C334.876 201.531 334.528 198.226 333.079 197.067C332.094 196.255 327.631 193.066 327.631 190.515C327.689 187.964 330.471 188.66 332.036 191.095C333.601 193.53 335.919 190.341 334.76 189.182C333.601 188.022 334.123 186.863 335.514 186.167C336.905 185.529 340.788 186.747 342.643 188.428C344.497 190.167 343.222 190.805 343.164 191.791C343.164 192.776 346.41 195.443 348.438 195.501C350.409 195.559 351.22 194.284 351.278 192.834C351.278 191.385 349.714 191.617 349.772 190.051C349.772 188.544 344.845 186.341 344.903 183.848C344.961 181.297 346.932 180.195 346.99 179.094C346.99 177.992 345.367 177.18 345.367 175.731C345.367 174.282 348.381 173.18 350.583 173.238C352.843 173.296 357.596 173.934 359.972 173.934C362.348 173.992 363.566 172.368 365.652 172.368C367.681 172.426 368.492 171.615 368.55 170.745C368.55 169.875 365.13 168.194 365.188 167.034C365.188 165.469 365.652 166.86 367.159 166.918C368.666 166.918 368.028 165.643 368.028 164.715C368.028 163.788 367.855 161.758 369.014 160.657C371.042 158.859 368.434 160.135 368.434 158.859C368.434 157.584 370.579 159.033 371.912 157.758C373.245 156.482 374.288 154.395 377.823 153.062C381.359 151.728 381.938 153.526 384.315 151.322C386.633 149.119 388.546 151.032 388.604 149.177C388.604 147.728 386.981 148.481 386.981 147.554C386.981 146.626 390.4 146.278 391.56 146.278C392.661 146.278 393.472 145.003 394.341 145.003C395.211 145.003 394.342 146.568 394.284 147.786C394.284 149.003 395.153 148.597 396.196 147.612C397.239 146.626 400.891 148.192 400.949 146.394C401.007 144.133 404.658 146.626 405.759 145.641C406.803 144.655 403.093 142.626 403.151 141.698C403.151 140.77 409.353 142.336 409.411 139.437C409.411 138.683 407.904 137.176 407.904 134.973C407.962 132.827 412.367 124.943 414.743 125C416.366 125 415.554 126.45 417.061 126.45C418.626 126.45 419.553 127.552 418.626 128.421C417.699 129.291 412.193 132.885 417.409 133.001C422.683 133.059 422.046 131.61 423.263 132.827C424.48 134.045 422.335 134.277 422.335 135.494C422.335 136.712 424.886 137.988 426.508 138.045C428.131 138.045 427.899 135.147 427.146 134.567C426.393 133.987 429.117 133.233 430.565 133.233C432.014 133.233 433.232 131.726 434.043 131.784C434.854 131.784 434.854 133.233 435.492 133.233C436.187 133.233 436.477 132.422 437.173 132.422C438.39 132.422 439.491 137.176 441.636 137.234C443.722 137.292 444.939 138.625 444.939 139.437C444.939 140.249 444.533 140.828 443.78 140.828C443.027 140.828 441.867 139.495 441.462 140.075C440.187 141.988 446.91 143.727 446.91 145.583C446.91 147.438 445.519 146.684 445.461 149.061C445.403 153.352 438.854 156.598 438.796 159.729C438.738 164.367 436.13 163.788 436.13 165.643C436.13 167.498 435.086 168.774 433.811 168.774C432.594 168.774 432.014 169.759 432.014 170.455C432.014 171.846 429.174 173.296 429.174 175.383C429.117 177.47 427.784 179.326 428.479 179.789C429.174 180.253 431.841 178.804 431.435 177.992C431.087 177.18 431.319 175.499 433.29 175.151C435.26 174.745 435.84 175.267 436.825 174.687C437.81 174.108 437.694 172.078 438.969 171.383C440.245 170.687 442.911 169.817 442.911 168.31C442.911 166.802 440.94 166.107 440.998 164.889C440.998 163.614 442.795 163.382 444.186 163.44C445.577 163.498 446.968 165.121 448.011 165.121C449.112 165.121 449.634 161.874 450.503 161.874C451.431 161.874 451.488 163.44 451.488 164.831C451.488 166.223 452.706 167.44 454.212 167.44C456.821 167.498 454.213 165.933 454.27 165.411C454.27 164.889 458.733 160.309 463.428 160.425C466.674 160.483 466.5 159.439 467.891 159.497C469.282 159.497 468.238 160.193 468.238 161.005C468.238 161.816 470.499 164.019 472.933 164.019C475.367 164.077 474.672 162.164 475.483 162.222C476.353 162.222 476.063 163.788 477.338 163.788C478.613 163.788 481.859 160.367 483.308 160.425C484.757 160.425 486.264 160.657 486.264 157.99C486.321 154.917 483.771 153.583 483.829 151.38C483.887 149.177 484.583 148.655 485.8 148.655C487.075 148.655 489.625 151.264 490.436 151.264C491.248 151.264 491.248 149.815 491.943 149.815C492.639 149.815 492.639 150.917 493.392 150.917C494.204 150.917 494.494 146.916 496.232 146.916C497.971 146.916 497.797 148.771 498.725 148.829C499.652 148.829 499.594 148.076 500.405 148.134C501.217 148.134 502.028 149.003 501.97 149.699C501.97 150.395 501.043 150.917 501.043 151.554C501.043 152.25 502.666 151.844 503.419 152.598C504.173 153.352 503.245 155.787 504.115 155.787C504.984 155.787 505.969 154.569 506.897 154.569C507.882 154.569 507.766 155.903 507.766 156.25C507.708 158.164 504.926 158.222 504.926 159.265C504.926 160.309 506.491 161.41 507.244 161.41C507.998 161.41 507.998 160.541 508.52 160.541C509.041 160.541 508.52 163.324 509.621 163.324C515.706 163.44 513.968 167.324 517.677 167.382C519.59 167.44 519.763 166.628 520.807 166.628C521.85 166.628 522.719 168.078 523.299 168.078C525.269 168.136 522.082 161.642 522.082 159.439C522.14 157.236 520.517 156.482 520.517 155.091C520.517 153.699 522.777 153.931 524.052 155.439C525.385 156.946 526.487 155.381 528.109 155.381C529.732 155.381 531.529 155.497 531.529 154.627C531.529 153.757 530.891 153.062 530.891 151.844C530.891 150.627 532.456 148.366 536.687 148.423C538.31 148.423 538.716 149.177 540.165 149.235C541.556 149.235 541.324 147.728 541.324 147.322C541.324 146.916 538.832 145.93 538.832 145.061C538.832 144.249 540.397 143.553 541.73 143.553C543.063 143.553 545.149 141.988 545.207 141.524C545.207 141.06 541.15 138.683 540.165 137.756C539.237 136.828 540.223 134.045 538.716 134.045C537.209 134.045 538.252 136.712 537.209 136.712C536.166 136.712 535.76 134.683 536.398 134.103C537.035 133.523 539.18 132.306 539.18 130.972C539.18 129.639 536.398 128.943 536.398 128.189C536.398 127.436 537.962 127.204 539.701 127.204C541.44 127.204 544.57 125.812 544.57 123.145C544.628 120.478 551.988 118.913 552.684 119.783C553.379 120.652 549.844 121.174 549.786 122.507C549.728 123.841 549.032 125.116 549.728 125.812C550.423 126.508 553.147 122.855 554.423 122.913C555.698 122.913 555.872 124.479 555.814 125.116C555.814 125.754 554.538 127.957 555.292 128.653C555.987 129.349 558.538 126.682 558.538 125.522C558.596 122.218 557.842 121.87 557.842 120.246C557.842 118.565 558.132 115.434 561.493 114.333C564.797 113.231 566.942 112.651 566.942 113.579C566.942 114.507 564.971 114.796 564.971 116.594C564.971 118.391 569.086 118.449 570.129 117.521C571.172 116.594 571.52 116.826 572.39 117.695C573.259 118.565 575.23 117.231 574.07 116.014C572.853 114.796 575.635 113.753 576.621 113.753C577.606 113.753 578.475 115.202 580.33 115.202C582.185 115.202 587.111 110.796 587.169 107.897C587.227 104.998 592.733 95.4899 598.819 95.6058C604.962 95.7218 605.368 100.534 607.802 100.592C608.961 100.592 610.526 98.9685 612.207 98.2728C614.062 97.5191 616.032 97.577 616.09 96.9973C616.206 95.8377 614.815 96.0696 614.815 94.7941C614.815 93.5186 617.423 93.9824 617.481 89.4022C617.539 84.822 622.06 86.9092 622.118 83.7784C622.176 80.6476 626.059 80.2997 626.059 78.1545C626.117 76.0094 624.784 75.5455 624.784 74.6759C624.784 73.8062 623.683 72.1828 623.683 70.9653C623.683 69.8057 624.842 68.4723 625.827 68.4723C626.812 68.4723 627.392 69.7478 627.392 70.3275C627.392 70.9073 625.943 71.1972 625.943 71.9509C625.943 72.7046 626.813 74.0961 630.638 74.1541C634.463 74.2121 639.853 71.2552 639.911 69.6318C639.911 68.8201 638.868 66.9648 636.723 66.0372C634.637 65.1675 631.449 65.2255 630.464 65.1675C628.435 65.1096 629.595 63.5442 628.377 63.5442C627.102 63.5442 626.349 62.0947 628.146 60.4134C629.942 58.732 629.71 57.5145 630.928 56.4129C632.145 55.2533 633.594 56.7608 633.652 53.514C633.71 50.2673 637.013 48.8758 637.071 46.4407C637.129 44.0057 649.011 33.3958 652.314 33.4537C655.618 33.5117 663.442 22.2061 667.963 22.264C672.484 22.322 672.773 17.7418 675.382 17.7998C677.932 17.8577 678.396 19.2492 680.192 19.3072C681.989 19.3072 681.062 20.9885 682.974 20.9885C683.844 20.9885 684.191 19.9449 685.235 19.0753C686.51 17.9737 688.422 16.9301 688.422 16.2344C688.422 14.9009 686.104 15.7126 683.67 15.7126C681.235 15.6546 678.569 14.9589 679.844 13.7413C681.12 12.5238 681.989 11.0744 681.989 9.21907C682.047 7.3058 685.756 3.88512 687.959 3.9431C690.103 4.00108 691.03 -0.0573623 693.233 0.000615346C695.435 0.058593 694.218 2.14579 695.899 3.76916C697.58 5.39254 694.044 5.97232 695.319 7.01592C696.594 8.05951 697.58 7.13187 697.522 8.63929C697.522 10.0887 693.754 11.2483 694.45 11.944C694.856 12.3499 696.189 12.6977 697.232 12.4078C698.101 12.1759 698.681 11.2483 699.087 11.2483C700.072 11.2483 700.13 12.2339 701.173 12.2339C702.158 12.2339 702.854 12.5818 704.013 13.7413C705.114 14.9009 705.288 16.8721 706.216 16.0025C707.143 15.1328 708.476 15.3067 708.476 16.0025C708.476 16.6982 706.042 16.6982 706.042 17.6258C706.042 18.5535 707.664 18.3795 707.664 19.829C707.664 21.2784 705.404 20.6986 704.477 21.5683C703.549 22.438 700.536 28.2357 698.159 28.1778C695.783 28.1198 694.74 26.0906 693.465 27.3081C692.19 28.5256 690.799 29.8591 690.799 30.7868C690.799 31.7144 692.016 32.5841 692.016 33.9755C692.016 35.367 691.146 37.1063 690.103 37.0484C689.118 37.0484 688.886 35.8308 688.364 35.8308C687.843 35.8308 686.857 37.3962 685.756 37.3962C684.655 37.3962 682.8 35.1351 681.931 35.1351C681.062 35.1351 681.525 37.1643 681.467 37.6861C681.467 38.2079 680.192 37.918 680.192 38.9036C680.192 39.8893 682.684 39.5414 682.626 40.585C682.626 41.6286 683.612 43.3099 684.655 43.3099C685.64 43.3099 686.452 42.4403 687.785 42.4403C689.176 42.4403 688.364 45.1073 689.118 45.1073C689.871 45.1073 690.161 44.3535 690.972 44.4115C691.842 44.4115 695.145 49.0497 695.088 52.6444C695.03 56.239 686.336 58.9639 687.843 60.4713C688.422 61.0511 689.929 59.0799 690.509 59.6597C691.088 60.2394 689.002 61.6309 689.639 62.2107C690.277 62.7904 693.117 64.2979 693.175 61.5729C693.233 58.848 695.667 60.4713 697.116 59.0799C698.565 57.6884 698.623 56.4709 702.216 56.5289C705.81 56.5868 704.825 58.3262 706.679 58.3262C708.476 58.3262 708.476 56.8767 710.215 56.9347C712.011 56.9347 711.664 55.4853 712.881 55.4853C714.156 55.4853 713.75 56.8187 715.141 56.8187C716.474 56.8187 715.895 55.6012 716.648 55.6012C717.401 55.6012 717.228 57.0507 718.039 57.8623C718.85 58.674 719.314 59.1958 719.314 60.2394C719.314 61.283 717.633 61.225 716.474 62.3266C715.315 63.4282 715.605 65.0516 713.808 64.9936C712.011 64.9936 711.606 66.0372 711.606 66.6749C711.606 67.3127 713.924 67.9505 713.866 68.9941C713.866 69.9797 714.735 72.0089 715.663 72.8786C716.59 73.8062 716.416 85.2858 718.155 87.0251C719.894 88.7644 717.981 97.8669 722.386 97.9249C723.429 97.9249 721.632 104.534 723.951 106.448C726.269 108.361 726.849 113.753 723.371 110.216C722.27 109.115 720.068 112.593 718.039 115.202C716.474 117.174 714.793 118.275 715.083 118.623C715.837 119.493 715.489 121.986 715.431 124.189C715.373 126.392 720.01 133.755 714.504 128.189C708.997 122.623 713.692 133.175 714.098 134.393C715.141 137.35 711.374 136.016 711.374 138.161C711.374 140.307 710.157 140.654 710.157 142.162C710.157 143.611 717.054 149.873 718.097 150.917C719.082 151.96 716.474 158.164 721.111 158.222C723.371 158.28 721.922 161.063 725.805 161.121C729.689 161.179 727.544 159.439 727.544 158.164C727.544 156.888 728.356 155.323 729.341 155.323C730.326 155.323 732.007 157.584 732.007 158.801C732.007 159.961 734.557 163.788 738.209 163.846C739.368 163.846 739.947 162.628 741.686 162.628C743.425 162.628 744.352 163.846 744.294 164.947C744.236 167.788 740.933 166.628 740.875 168.194C740.875 169.759 743.019 175.383 744.526 175.441C746.091 175.441 747.192 177.876 749.51 177.934C751.887 177.992 755.538 177.412 755.48 180.137C755.422 182.862 748.989 183.268 751.133 189.356C754.321 198.4 761.392 197.473 761.276 198.516C761.218 199.56 758.378 198.226 758.32 200.777C758.262 203.328 757.219 203.096 757.161 204.836C757.161 206.575 757.972 209.358 759.305 209.416C760.638 209.416 766.724 214.286 766.666 218.924C766.608 223.621 769.448 226.23 767.941 227.679C765.043 230.462 761.334 224.49 759.19 224.432C757.045 224.374 756.465 223.505 755.132 222.229C753.857 220.896 745.279 218.982 743.077 216.547C737.223 209.996 732.007 214.576 725.168 207.677C718.329 200.777 716.01 197.415 716.01 195.791C716.01 194.11 714.098 192.66 714.156 191.037C714.156 189.356 710.099 186.457 709.635 185.993C709.171 185.529 711.664 184.312 711.722 183.036C711.722 181.761 710.678 181.123 710.736 180.833C710.736 180.543 714.446 179.384 713.171 178.572C710.678 177.006 711.258 165.469 706.679 163.034C705.172 162.222 707.433 160.367 705.52 156.308C703.549 152.25 700.999 147.264 700.999 145.351C701.057 143.437 701.869 140.712 701.927 138.741C701.985 136.77 698.855 134.567 698.855 133.001C698.855 131.436 697.348 133.755 693.523 129.871C689.697 125.986 689.813 126.276 689.813 125.232C689.813 124.189 692.595 122.276 691.552 121.232C690.509 120.188 685.698 124.131 685.698 126.044C685.64 127.957 685.466 129.871 688.017 132.48C690.567 135.089 693.175 133.581 693.117 134.915C693.117 136.248 690.857 136.132 690.799 137.582C690.799 138.973 692.132 140.191 692.074 142.336C692.016 144.481 693.639 145.93 693.581 148.539C693.523 151.148 693.755 153.178 690.277 149.989C688.828 148.713 690.161 153.989 687.553 150.569C684.945 147.148 682.8 143.727 682.105 144.481C681.351 145.235 683.032 148.655 681.699 149.699C680.424 150.685 678.917 149.177 677.99 150.105C677.062 151.032 678.164 154.975 677.178 156.192C676.193 157.352 675.382 159.033 675.324 160.831C675.324 162.628 677.005 164.657 677.758 165.469C678.511 166.223 676.947 168.484 677.642 169.179C678.338 169.875 678.859 170.397 679.671 171.209C680.482 172.078 679.265 179.673 680.308 180.717C681.351 181.761 682.279 183.094 682.279 183.964C682.279 184.833 683.38 186.921 684.655 186.921C685.93 186.921 688.248 184.08 689.581 184.08C690.972 184.08 689.871 185.239 689.292 185.819C688.712 186.341 687.727 186.689 687.727 188.486C687.727 190.283 685.409 189.414 684.191 190.573C682.974 191.733 685.061 193.53 685.061 194.922C685.061 196.313 682.8 196.835 682.105 197.473C681.409 198.11 683.322 202.343 680.482 202.285C677.642 202.227 679.149 199.212 679.787 198.574C680.424 197.994 681.062 196.081 679.902 196.081C678.743 196.081 673.991 197.762 671.151 200.429C668.311 203.096 663.848 204.314 665.413 208.72C666.978 213.069 664.37 209.648 663.21 210.749C662.051 211.851 663.5 214.46 660.37 215.967C657.299 217.475 656.951 219.33 657.646 220.664C658.342 221.997 655.328 220.316 652.024 223.389C648.721 226.461 641.766 233.651 641.65 238.811C641.592 243.971 643.331 241.652 643.273 243.797C643.215 245.884 641.07 247.102 641.07 249.247C641.012 251.334 643.563 253.595 643.563 254.465C643.563 255.334 641.708 262.408 641.65 265.48C641.592 268.553 642.809 274.003 642.751 276.96C642.693 279.917 639.158 288.556 639.1 291.628C639.042 294.701 637.651 302.876 644.722 297.716C648.083 295.223 648.605 294.933 649.706 294.933C650.807 294.933 651.851 301.079 653.995 301.079C656.14 301.079 655.85 297.948 655.444 297.658C655.038 297.368 653.531 295.107 654.633 295.107C655.734 295.107 657.82 295.919 657.82 297.774C657.762 302.064 660.718 301.601 660.776 298.586C660.776 297.136 661.066 297.368 662.167 296.672C663.268 295.977 665.239 297.716 665.297 296.904C665.297 295.339 662.167 292.034 662.167 289.483C662.225 286.932 668.021 286.005 670.513 286.062C673.005 286.12 674.222 288.092 675.961 288.15C677.7 288.15 680.366 286.642 681.12 287.396C681.873 288.15 677.7 290.527 678.569 291.454C679.439 292.382 682.858 291.396 683.844 292.382C684.771 293.368 685.177 295.339 687.205 295.397C689.234 295.455 690.683 299.745 691.436 305.427C692.19 311.109 698.043 314.472 699.318 316.617C700.594 318.762 708.65 329.488 708.592 333.604C708.534 337.721 708.824 346.127 708.766 349.258C708.708 352.389 712.359 358.998 712.243 366.883C712.127 374.768 712.185 398.133 710.852 401.554C709.519 405.033 706.042 410.135 704.825 411.352C703.549 412.57 698.043 413.961 696.826 413.961C695.667 413.961 696.015 410.599 695.146 410.541C694.276 410.483 693.697 413.729 693.001 413.729C692.363 413.729 691.668 411.642 691.03 411.642C690.393 411.642 690.625 418.368 690.567 419.121C690.567 419.933 688.596 422.252 688.538 424.049C688.538 425.847 686.452 425.267 686.452 423.064C686.452 420.861 688.77 419.875 688.77 417.208C688.828 414.541 684.771 410.657 683.438 408.859C682.8 407.932 682.395 406.076 681.177 404.859C679.902 403.641 677.816 403.061 677.816 401.96C677.874 399.815 681.004 399.119 681.062 396.104C681.12 393.089 683.786 393.321 684.307 393.321C684.887 393.321 686.799 393.901 688.596 392.22C690.393 390.538 687.785 388.045 687.785 386.538C687.785 385.03 688.77 384.799 688.828 383.407C688.828 382.016 687.089 380.218 687.147 378.247C687.205 376.276 685.524 375.232 685.524 372.913C685.582 370.652 684.249 368.623 683.728 368.159C683.206 367.695 682.279 366.941 682.337 366.188C682.395 365.434 683.612 365.724 683.67 363.347C683.728 360.97 681.931 359.868 681.177 359.114C680.424 358.361 678.164 354.824 675.961 356.911C673.759 358.998 672.774 362.187 671.093 363.753C669.412 365.318 668.659 366.42 668.601 367.115C668.601 367.811 669.412 367.753 669.354 369.029C669.354 370.304 667.152 371.812 665.355 372.623C663.558 373.377 661.646 374.073 661.588 375.116C661.588 376.16 658.052 375.754 656.313 374.247C654.575 372.739 656.777 372.101 655.618 371C654.517 369.898 652.082 366.825 650.749 366.825C649.474 366.825 647.851 367.869 646.518 367.869C645.185 367.869 643.389 366.536 641.708 366.536C640.027 366.536 637.767 367.347 636.202 367.347C634.695 367.347 632.377 369.898 629.537 369.84C626.697 369.782 624.9 366.767 622.466 363.811C620.031 360.854 618.003 359.926 616.148 359.926C614.294 359.926 614.757 356.042 612.033 354.128C609.309 352.215 607.628 352.099 606.759 351.287C605.89 350.476 604.093 345.664 597.833 345.548C591.574 345.432 592.095 347.113 590.415 347.113C588.734 347.113 584.039 347.461 581.721 347.461C579.403 347.403 576.679 351.461 573.607 352.911C570.535 354.36 567.985 357.665 567 360.158C566.014 362.651 565.956 365.202 567.405 365.202C568.854 365.202 570.245 364.622 571.578 365.956C572.911 367.289 573.201 369.318 573.201 370.884C573.201 372.449 571.636 372.855 571.578 378.537C571.462 384.219 569.897 383.407 569.897 384.914C569.897 386.422 573.143 389.437 573.085 391.524C573.027 393.553 571.462 393.089 570.071 394.481C568.622 395.814 568.101 400.974 562.711 400.916C557.32 400.858 555.582 399.931 554.423 399.931C553.321 399.931 549.438 403.235 548.105 403.235C546.714 403.235 545.265 400.974 543.121 400.974C541.034 400.916 535.412 405.265 534.833 407.236C534.253 409.207 531.877 411.932 529.674 414.019C527.472 416.106 525.501 415.295 523.415 417.266C521.27 419.295 517.967 422.02 509.737 421.904C501.449 421.788 499.13 419.527 497.449 417.846C495.769 416.164 490.9 417.44 488.756 416.454C486.611 415.469 478.149 414.831 475.309 417.498C472.469 420.165 470.557 420.397 465.804 420.281C456.473 420.165 457.574 411.642 454.039 410.193C450.503 408.743 446.388 410.309 444.823 410.251C443.258 410.193 442.795 407.816 438.622 407.758C434.449 407.7 436.072 405.497 434.043 405.497C432.014 405.439 429.986 410.251 429.001 411.41C428.015 412.57 426.161 414.019 426.161 415.585C426.161 417.15 427.61 418.947 427.61 420.339C427.61 421.73 429.928 423.122 429.928 424.745C429.928 426.368 426.392 431.065 421.756 431.007C417.119 430.949 407.382 430.253 402.514 426.079C397.645 421.904 397.181 424.397 395.211 424.397C393.298 424.339 391.502 421.266 390.226 421.266C388.951 421.266 388.024 423.238 387.097 423.238C384.025 423.18 384.894 425.905 382.75 425.905C379.156 425.847 374.81 431.007 372.723 430.949C370.637 430.891 370.695 432.862 370.057 433.674C369.419 434.485 368.55 433.79 367.333 434.485C366.174 435.181 365.884 435.993 363.624 435.993C360.03 435.935 358.523 439.124 356.263 439.066C351.568 439.008 352.206 431.644 350.525 431.586C348.844 431.586 347.279 434.601 345.251 434.601C343.222 434.543 339.455 433.384 339.455 431.297C339.513 429.151 333.427 425.963 333.485 423.122C333.543 420.281 327.11 417.44 325.197 417.382C323.285 417.324 321.72 419.353 320.155 419.295C318.59 419.237 318.3 417.904 317.315 417.904C316.33 417.904 315.344 418.542 314.011 417.208C312.678 415.875 313.142 411.99 310.881 411.932C308.563 411.874 308.911 416.106 306.535 416.048C304.158 415.99 302.767 410.831 302.825 408.859C302.883 406.946 300.391 403.235 300.391 401.206C300.449 399.177 298.247 398.597 298.304 395.814C298.362 393.031 298.362 390.712 296.855 389.147C295.349 387.581 293.552 383.233 291.755 381.958C289.901 380.682 288.394 380.566 288.394 379.523C288.394 378.479 291.755 376.972 291.755 376.044C291.755 375.116 291.292 374.015 290.016 373.957C288.741 373.957 286.771 376.044 284.163 375.986C281.612 375.928 280.106 377.551 278.483 378.131C276.86 378.653 274.426 380.276 273.556 380.276C272.687 380.276 272.513 378.363 271.991 378.363C271.412 378.363 269.615 379.754 268.688 379.754C267.702 379.754 267.413 378.653 268.862 377.261C270.311 375.87 271.76 375.812 271.818 374.768C271.818 373.725 270.774 373.203 269.499 373.145C268.224 373.145 267.181 371.754 266.543 371.754C265.906 371.754 264.978 373.087 263.935 373.029C261.443 372.971 263.414 370.71 263.414 370.13C263.414 369.492 262.66 367.811 261.501 367.811C260.4 367.811 260.11 369.029 258.255 369.029C256.401 369.029 255.763 367.985 255.821 366.767C255.821 365.608 258.371 364.216 258.429 361.144C258.487 358.071 255.589 356.737 254.082 356.737C252.575 356.737 252.517 354.186 250.315 354.128C248.17 354.07 246.142 352.563 244.287 352.563C242.433 352.563 241.273 354.708 238.781 354.708C236.289 354.65 234.145 353.954 231.768 353.896C229.45 353.838 229.74 354.998 228.233 354.94C226.726 354.94 225.393 352.737 222.959 352.737C220.524 352.679 221.22 354.708 219.249 354.65C217.279 354.592 211.483 352.389 207.6 352.331C203.716 352.273 201.804 352.795 199.717 350.997C197.631 349.258 192.936 347.983 192.588 351.983C192.299 355.984 196.645 358.303 195.023 360.274C193.4 362.245 192.357 357.491 187.836 358.593C183.315 359.694 187.024 363.811 184.938 364.564C182.909 365.26 179.78 364.564 178.794 366.13C177.809 367.695 185.112 374.131 185.054 376.102C184.996 378.073 183.199 379.754 179.606 379.696C176.07 379.638 175.896 376.276 173.636 376.218C171.376 376.16 172.709 380.16 168.362 375.812C164.015 371.406 166.565 367.405 163.146 367.347C159.726 367.289 159.494 368.043 158.277 367.985C157.118 367.985 156.422 363.521 153.061 363.463C149.757 363.405 150.337 364.448 147.555 364.448C144.773 364.39 142.686 359.346 141.527 359.288C140.368 359.288 139.962 361.665 138.919 361.665C137.876 361.665 141.005 358.94 138.977 356.911C136.948 354.882 139.035 351.171 137.18 349.316C135.326 347.461 133.703 347.925 132.312 346.533C130.921 345.142 131.732 342.301 129.704 342.301C127.675 342.243 125.762 343.344 125.067 342.649C124.371 341.953 126.342 337.721 123.618 337.663C120.952 337.605 118.228 339.982 116.721 339.982C115.214 339.982 114.576 338.358 112.896 338.358C111.157 338.358 111.157 340.33 109.65 340.33C108.143 340.33 104.55 340.909 102.985 342.417C101.42 343.924 102.289 345.548 101.246 345.548C100.145 345.548 97.4207 343.402 97.4207 341.721C97.4207 340.04 99.0436 339.112 97.7105 337.721C96.3195 336.329 93.6535 338.242 92.4363 339.402C91.1612 340.62 88.727 340.098 86.8144 341.953C84.554 344.098 86.4666 344.678 85.0177 346.127C83.6267 347.577 81.4822 345.837 79.3957 347.809C74.9909 351.983 79.5696 352.099 79.5116 353.78C79.4537 356.853 77.7149 357.201 77.7149 358.824C77.7149 360.39 81.6561 361.723 82.6993 363.521C83.7426 365.318 83.9164 373.957 82.7573 374.652C81.5401 375.348 80.323 372.507 78.99 373.435C77.7149 374.363 81.2504 379.059 80.381 379.986C79.5116 380.914 72.6146 381.262 69.195 379.523C65.7755 377.783 63.2833 379.928 62.5298 381.088C61.7763 382.247 60.4433 383.465 58.5307 383.465C56.618 383.407 52.7348 382.943 52.6769 385.262C52.6189 387.581 54.8793 388.567 54.1838 392.741C53.3724 397.785 47.8663 399.061 47.8084 402.946C47.7504 406.83 48.9096 415.469 48.4459 416.918C48.388 417.846 45.7798 418.715 44.099 416.628Z" fill="#E1E1E1"/>
</svg>