<svg width="23" height="24" viewBox="0 0 23 24" fill="none" xmlns="http://www.w3.org/2000/svg">
<ellipse cx="11.5" cy="11.5018" rx="11.5" ry="11.5018" fill="#CA0100"/>
<path d="M11.5 6.00098C8.46718 6.00098 6 8.46853 6 11.5018C6 14.5351 8.46718 17.0027 11.5 17.0027C14.5328 17.0027 17 14.5351 17 11.5018C17 8.46853 14.5328 6.00098 11.5 6.00098ZM14.1157 14.3471C14.0263 14.4365 13.909 14.4815 13.7917 14.4815C13.6744 14.4815 13.557 14.4365 13.4677 14.3471L11.176 12.0551C11.0898 11.9694 11.0417 11.8529 11.0417 11.731V8.7514C11.0417 8.49791 11.247 8.29302 11.5 8.29302C11.753 8.29302 11.9583 8.49791 11.9583 8.7514V11.5413L14.1157 13.6989C14.2949 13.8782 14.2949 14.1679 14.1157 14.3471V14.3471Z" fill="white"/>
</svg>
