<svg width="23" height="24" viewBox="0 0 23 24" fill="none" xmlns="http://www.w3.org/2000/svg">
<ellipse cx="11.5" cy="11.5018" rx="11.5" ry="11.5018" fill="#CA0100"/>
<g clip-path="url(#clip0_1233_22938)">
<path d="M11.4994 6.00098C9.30274 6.00098 7.51562 7.78836 7.51562 9.98535C7.51562 12.7119 11.0807 16.7146 11.2325 16.8836C11.3751 17.0425 11.624 17.0422 11.7663 16.8836C11.9181 16.7146 15.4832 12.7119 15.4832 9.98535C15.4831 7.78836 13.6961 6.00098 11.4994 6.00098ZM11.4994 11.99C10.3942 11.99 9.49509 11.0907 9.49509 9.98535C9.49509 8.87998 10.3942 7.98072 11.4994 7.98072C12.6046 7.98072 13.5037 8.88 13.5037 9.98537C13.5037 11.0907 12.6046 11.99 11.4994 11.99Z" fill="white"/>
</g>
<defs>
<clipPath id="clip0_1233_22938">
<rect width="11" height="11.0017" fill="white" transform="translate(6 6.00098)"/>
</clipPath>
</defs>
</svg>
