<svg width="23" height="24" viewBox="0 0 23 24" fill="none" xmlns="http://www.w3.org/2000/svg">
<ellipse cx="11.5" cy="12.4432" rx="11.5" ry="11.5018" fill="#CA0100"/>
<g clip-path="url(#clip0_1233_22933)">
<path d="M15.7982 15.0546L14.4083 13.6646C14.1315 13.3888 13.673 13.3972 13.3865 13.6838L12.6863 14.3839C12.642 14.3595 12.5963 14.334 12.5481 14.307C12.1059 14.062 11.5007 13.7262 10.8638 13.0888C10.2251 12.4502 9.88894 11.844 9.64317 11.4015C9.61724 11.3546 9.59239 11.3095 9.56785 11.2665L10.0378 10.7973L10.2689 10.5659C10.5558 10.2789 10.5637 9.82059 10.2875 9.54406L8.89761 8.15384C8.62141 7.87769 8.16274 7.88607 7.87582 8.17308L7.48409 8.56705L7.4948 8.57768C7.36345 8.74528 7.25369 8.93858 7.17201 9.14703C7.09671 9.34545 7.04983 9.5348 7.0284 9.72453C6.84487 11.246 7.54015 12.6366 9.42704 14.5235C12.0353 17.1315 14.1372 16.9345 14.2279 16.9249C14.4254 16.9013 14.6147 16.8541 14.807 16.7794C15.0136 16.6987 15.2068 16.5891 15.3743 16.458L15.3829 16.4656L15.7797 16.077C16.066 15.7901 16.0743 15.3316 15.7982 15.0546Z" fill="white"/>
</g>
<defs>
<clipPath id="clip0_1233_22933">
<rect width="9" height="9.00138" fill="white" transform="translate(7 7.94238)"/>
</clipPath>
</defs>
</svg>
