<svg width="198" height="58" viewBox="0 0 198 58" fill="none" xmlns="http://www.w3.org/2000/svg">
<g id="logo1 1" clip-path="url(#clip0_817_5758)">
<path id="Vector" d="M35.3043 7.28014C41.2119 20.1375 47.1671 32.9949 53.1224 45.9468C53.3129 45.7577 53.4559 45.6159 53.5988 45.4741C55.3615 42.827 56.6479 40.0381 57.5054 36.9656C58.2677 34.2712 58.6488 31.5295 58.5536 28.7879C58.4106 22.4537 56.4097 16.6868 52.5507 11.629C50.2638 8.6037 47.453 6.14567 44.2133 4.20761C41.6883 2.69497 38.9727 1.51323 36.0189 0.898724C35.5425 0.804184 35.0661 0.709645 34.5896 0.615105C34.2561 0.520566 34.0656 0.662375 33.9227 0.945993C32.684 3.35675 31.4453 5.76751 30.2066 8.22554C28.0627 12.4325 25.9188 16.5923 23.8226 20.7993C22.2027 23.9664 20.5829 27.1807 18.9631 30.3478C17.0574 34.0821 15.1517 37.8637 13.1984 41.598C11.8168 44.3396 10.4352 47.0813 9.0059 49.8229C8.76769 50.2956 8.81533 50.5792 9.24411 50.9101C10.1017 51.5719 10.9592 52.281 11.7691 52.9427C12.055 53.1791 12.1979 53.1318 12.3885 52.8009C13.7701 50.0593 15.1041 47.3176 16.4857 44.576C18.3914 40.7471 20.3447 36.871 22.2504 33.0422C24.156 29.166 26.1094 25.3372 28.015 21.4611C30.0637 17.3959 32.1123 13.3307 34.1132 9.2182C34.4467 8.55643 34.7326 7.94192 35.0661 7.28014C35.209 7.28014 35.2566 7.28014 35.3043 7.28014Z" fill="#262626"/>
<path id="Vector_2" d="M5.43095 46.088C5.81209 45.379 6.14558 44.7172 6.52672 44.0082C9.09939 38.903 11.6721 33.7979 14.2447 28.74C16.4839 24.2967 18.6754 19.8533 20.9146 15.41C23.1538 10.9193 25.4406 6.42871 27.6798 1.89082C27.918 1.46539 28.1562 0.992691 28.3467 0.567263C28.5373 0.141835 28.442 -0.0472436 27.9656 0.0472959C26.2029 0.283645 24.3925 0.425454 22.6297 0.803612C18.0084 1.79628 13.9589 3.87615 10.3381 6.85414C6.71729 9.83214 4.00169 13.5192 2.14366 17.8207C1.04789 20.3733 0.333263 23.0204 -0.000230551 25.762C-0.286082 28.551 -0.286082 31.2926 0.190337 34.0815C0.809683 37.7686 2.09602 41.172 4.00169 44.3391C4.28755 44.859 4.62104 45.3317 4.95453 45.8044C5.04982 45.9462 5.09746 46.088 5.1451 46.2299C5.28803 46.1826 5.38331 46.1353 5.43095 46.088Z" fill="#262626"/>
<path id="Vector_3" d="M48.166 49.4914C46.7844 46.5134 45.4028 43.4882 44.0212 40.4629H24.5356C23.3922 42.7318 22.2011 45.0008 21.1054 47.317C19.8667 49.8223 18.7233 52.3749 17.5322 54.9274C17.1987 55.6365 17.294 55.731 18.0086 55.9674C19.5332 56.4401 21.0101 57.0073 22.5823 57.3382C25.4408 58 28.347 58.1891 31.3008 57.8582C32.6347 57.7164 33.9687 57.6218 35.255 57.2909C37.1607 56.771 39.0664 56.1092 40.9244 55.3056C43.5447 54.1711 45.8316 52.5167 47.9278 50.6732C48.2613 50.2477 48.4042 50.0114 48.166 49.4914Z" fill="#C2C2C4"/>
<path id="Vector_4" d="M41.6386 35.2161C40.5905 32.8527 39.4947 30.5364 38.4466 28.173C37.3509 25.8095 36.3027 23.4932 35.207 21.1298C35.1117 20.8934 34.9688 20.6571 34.7782 20.3262C34.3018 21.2243 33.9206 21.9806 33.5395 22.7369C33.1584 23.4932 32.7772 24.2968 32.3485 25.0531C30.6333 28.4566 28.9182 31.86 27.2031 35.2161H41.6386Z" fill="#CA0100"/>
<g id="Group">
<path id="Vector_5" d="M79.7537 14.7949C80.7065 14.7949 81.2782 15.0785 81.85 16.1657L87.9005 27.0851C88.0434 27.3214 87.9958 27.5105 87.6623 27.5105H85.3278C85.0896 27.5105 84.9943 27.4632 84.899 27.2741L83.6127 24.9107H74.9895L73.7032 27.2741C73.6079 27.4632 73.5126 27.5105 73.2744 27.5105H70.8923C70.5588 27.5105 70.5112 27.3214 70.6541 27.0851L76.657 16.1657C77.2763 15.0785 77.8004 14.7949 78.5627 14.7949H79.7537ZM76.1806 22.8308H82.4693L79.5631 17.4893C79.5155 17.3948 79.4679 17.3475 79.3726 17.3475H79.2773C79.182 17.3475 79.1344 17.3948 79.0867 17.4893L76.1806 22.8308Z" fill="#262626"/>
<path id="Vector_6" d="M100.574 14.7953C103.099 14.7953 104.052 15.788 104.052 17.7733V18.6242C104.052 19.6641 103.671 20.4204 102.861 20.9404C103.718 21.4131 104.147 22.2167 104.147 23.3039V24.3438C104.147 26.2819 103.337 27.5109 100.907 27.5109H89.9975C89.6163 27.5109 89.4258 27.3218 89.4258 26.9436V15.3153C89.4258 14.9371 89.6163 14.748 89.9975 14.748H100.574V14.7953ZM92.2843 20.0895H99.8117C101.003 20.0895 101.384 19.7114 101.384 19.0023V18.3878C101.384 17.6315 101.003 17.3006 100.05 17.3006H92.5702C92.4272 17.3006 92.3319 17.3952 92.3319 17.537L92.2843 20.0895ZM92.2843 22.0749V24.7692C92.2843 24.911 92.3796 25.0056 92.5225 25.0056H100.05C101.003 25.0056 101.384 24.6747 101.384 23.9184V23.2093C101.384 22.453 101.003 22.0749 99.8117 22.0749H92.2843Z" fill="#262626"/>
<path id="Vector_7" d="M119.536 14.7953C119.822 14.7953 119.917 14.9371 119.917 15.1735V16.9697C119.917 17.2533 119.774 17.3952 119.536 17.3952H111.389C109.483 17.3952 108.959 17.9624 108.959 19.8532V22.453C108.959 24.3911 109.531 24.9583 111.389 24.9583H119.536C119.822 24.9583 119.917 25.1001 119.917 25.3365V27.1327C119.917 27.4163 119.774 27.5109 119.536 27.5109H111.294C107.578 27.5109 106.148 26.1873 106.148 22.6894V19.5696C106.148 16.0716 107.578 14.748 111.294 14.748L119.536 14.7953Z" fill="#262626"/>
<path id="Vector_8" d="M136.211 14.7949C137.164 14.7949 137.735 15.0785 138.307 16.1657L144.358 27.0851C144.5 27.3214 144.453 27.5105 144.119 27.5105H141.785C141.547 27.5105 141.451 27.4632 141.356 27.2741L140.07 24.9107H131.447L130.16 27.2741C130.065 27.4632 129.97 27.5105 129.731 27.5105H127.349C127.016 27.5105 126.968 27.3214 127.111 27.0851L133.209 16.213C133.829 15.1258 134.353 14.8422 135.115 14.8422H136.211V14.7949ZM132.638 22.8308H138.926L136.02 17.4893C135.973 17.3948 135.925 17.3475 135.83 17.3475H135.734C135.639 17.3475 135.591 17.3948 135.544 17.4893L132.638 22.8308Z" fill="#262626"/>
<path id="Vector_9" d="M147.548 14.7949C147.834 14.7949 147.929 14.9367 147.929 15.1731V22.4526C147.929 24.3907 148.501 24.9579 150.359 24.9579H155.456C157.362 24.9579 157.886 24.3907 157.886 22.4526V15.1731C157.886 14.8895 158.029 14.7949 158.267 14.7949H160.268C160.554 14.7949 160.649 14.9367 160.649 15.1731V22.689C160.649 26.1869 159.22 27.5105 155.504 27.5105H150.216C146.5 27.5105 145.07 26.1869 145.07 22.689V15.1731C145.07 14.8895 145.213 14.7949 145.499 14.7949H147.548Z" fill="#262626"/>
<path id="Vector_10" d="M177.038 14.7949C177.324 14.7949 177.467 14.9367 177.467 15.1731V16.9693C177.467 17.253 177.324 17.3948 177.038 17.3948H171.273V27.1323C171.273 27.416 171.13 27.5105 170.892 27.5105H168.891C168.605 27.5105 168.51 27.3687 168.51 27.1323V17.3948H162.745C162.459 17.3948 162.316 17.253 162.316 16.9693V15.1731C162.316 14.8895 162.459 14.7949 162.745 14.7949H177.038Z" fill="#262626"/>
<path id="Vector_11" d="M189.377 14.7949C193.093 14.7949 194.523 16.1185 194.523 19.6164V22.7362C194.523 26.2342 193.093 27.5578 189.377 27.5578H183.708C179.992 27.5578 178.562 26.2342 178.562 22.7362V19.6164C178.562 16.1185 179.992 14.7949 183.708 14.7949H189.377ZM181.373 22.5472C181.373 24.438 181.945 25.0052 183.803 25.0052H189.234C191.14 25.0052 191.664 24.438 191.664 22.5472V19.8055C191.664 17.9147 191.092 17.3475 189.234 17.3475H183.803C181.897 17.3475 181.373 17.9147 181.373 19.8055V22.5472Z" fill="#262626"/>
</g>
<g id="Group_2">
<path id="Vector_12" d="M76.179 35.877C77.9417 35.877 78.5611 36.4915 78.5611 38.1459V39.6113C78.5611 41.2657 77.8941 41.8802 76.179 41.8802H73.511C71.7959 41.8802 71.1289 41.2657 71.1289 39.6113V38.1459C71.1289 36.4915 71.7959 35.877 73.511 35.877H76.179ZM72.4629 39.5167C72.4629 40.4149 72.7011 40.6512 73.6063 40.6512H76.1313C77.0365 40.6512 77.2747 40.3676 77.2747 39.5167V38.2404C77.2747 37.3423 77.0365 37.106 76.1313 37.106H73.6063C72.7011 37.106 72.4629 37.3896 72.4629 38.2404V39.5167Z" fill="#737373"/>
<path id="Vector_13" d="M83.755 35.4531C83.8979 35.4531 83.9456 35.5004 83.9456 35.6422V37.1548H85.0413C86.5659 37.1548 87.0899 37.6275 87.0899 38.9038V40.1328C87.0899 41.3618 86.6135 41.8345 85.0413 41.8345H83.9456V43.5363C83.9456 43.6781 83.8979 43.7253 83.755 43.7253H82.8974C82.7545 43.7253 82.7069 43.6781 82.7069 43.5363V41.8345H81.6111C80.0866 41.8345 79.5625 41.3618 79.5625 40.1328V38.9038C79.5625 37.6748 80.0389 37.1548 81.6111 37.1548H82.7069V35.6422C82.7069 35.5004 82.7545 35.4531 82.8974 35.4531H83.755ZM80.8012 39.9438C80.8012 40.6528 80.9918 40.8891 81.754 40.8891H82.7545V38.1948H81.754C81.0394 38.1948 80.8012 38.4311 80.8012 39.1402V39.9438ZM83.9456 38.1948V40.8891H84.946C85.7083 40.8891 85.8989 40.6528 85.8989 39.9438V39.1402C85.8989 38.4311 85.7083 38.1948 84.946 38.1948H83.9456Z" fill="#737373"/>
<path id="Vector_14" d="M89.0911 37.2012C89.234 37.2012 89.2817 37.2484 89.2817 37.3903V40.6519C89.2817 40.6991 89.3293 40.7464 89.3293 40.7464H89.4246C89.4722 40.7464 89.5199 40.7464 89.5199 40.6991L92.0925 37.7211C92.3784 37.343 92.569 37.2012 93.1407 37.2012H93.6171C94.1411 37.2012 94.3793 37.3903 94.3793 38.0993V41.6918C94.3793 41.8336 94.3317 41.8809 94.1888 41.8809H93.3312C93.1883 41.8809 93.1407 41.8336 93.1407 41.6918V38.4302C93.1407 38.3829 93.1407 38.3356 93.093 38.3356H92.9977C92.9501 38.3356 92.9024 38.3356 92.9024 38.3829L90.3298 41.3609C89.9963 41.7391 89.8534 41.8809 89.2817 41.8809H88.8052C88.2812 41.8809 88.043 41.6918 88.043 40.9828V37.3903C88.043 37.2484 88.0906 37.2012 88.2335 37.2012H89.0911Z" fill="#737373"/>
<path id="Vector_15" d="M96.5239 37.2012C96.6668 37.2012 96.7145 37.2484 96.7145 37.3903V40.6991C96.7145 40.8409 96.7621 40.8882 96.9051 40.8882H100.621V37.4375C100.621 37.2957 100.669 37.2484 100.812 37.2484H101.669C101.812 37.2484 101.86 37.2957 101.86 37.4375V40.8882H103.003C103.146 40.8882 103.194 40.9355 103.194 41.0773V43.299C103.194 43.4408 103.146 43.4881 103.003 43.4881H102.336C102.193 43.4881 102.146 43.4408 102.146 43.299V41.8809H96.3334C95.7616 41.8809 95.5234 41.6445 95.5234 41.1718V37.4375C95.5234 37.2957 95.5711 37.2484 95.714 37.2484L96.5239 37.2012Z" fill="#737373"/>
<path id="Vector_16" d="M104.954 37.2012C105.097 37.2012 105.144 37.2484 105.144 37.3903V40.6519C105.144 40.6991 105.192 40.7464 105.192 40.7464H105.287C105.335 40.7464 105.382 40.7464 105.382 40.6991L107.955 37.7211C108.241 37.343 108.431 37.2012 109.003 37.2012H109.48C110.004 37.2012 110.242 37.3903 110.242 38.0993V41.6918C110.242 41.8336 110.194 41.8809 110.051 41.8809H109.194C109.051 41.8809 109.003 41.8336 109.003 41.6918V38.4302C109.003 38.3829 109.003 38.3356 108.956 38.3356H108.908C108.86 38.3356 108.813 38.3356 108.813 38.3829L106.24 41.3609C105.906 41.7391 105.764 41.8809 105.192 41.8809H104.715C104.191 41.8809 103.953 41.6918 103.953 40.9828V37.3903C103.953 37.2484 104.001 37.2012 104.144 37.2012H104.954Z" fill="#737373"/>
<path id="Vector_17" d="M115.15 37.2012C116.675 37.2012 117.199 37.6739 117.199 38.9502V41.2191C117.199 41.7863 117.056 41.8809 116.58 41.8809H112.482C111.482 41.8809 111.148 41.5027 111.148 40.6519V40.2264C111.148 39.5174 111.434 39.092 112.482 39.092H115.96V38.9502C115.96 38.3829 115.77 38.1938 115.007 38.1938H111.434C111.339 38.1938 111.291 38.1466 111.291 38.052V37.343C111.291 37.2484 111.339 37.2012 111.434 37.2012H115.15ZM115.96 40.6046V39.8483H112.816C112.482 39.8483 112.339 39.9901 112.339 40.2737V40.4628C112.339 40.7464 112.482 40.8882 112.816 40.8882H115.722C115.913 40.9355 115.96 40.8409 115.96 40.6046Z" fill="#737373"/>
<path id="Vector_18" d="M123.344 37.2016C123.868 37.2016 124.058 37.4379 124.058 37.8633V41.6449C124.058 41.7867 124.011 41.834 123.868 41.834H123.01C122.867 41.834 122.82 41.7867 122.82 41.6449V38.3833C122.82 38.2888 122.772 38.2415 122.677 38.2415H120.819C120.628 38.2415 120.628 38.336 120.58 38.4306C120.485 38.9033 120.342 40.2741 120.009 41.0304C119.77 41.5504 119.485 41.834 118.77 41.834H117.96C117.865 41.834 117.77 41.7867 117.77 41.6449V41.0304C117.77 40.8886 117.817 40.8413 117.96 40.8413H118.579C118.818 40.8413 119.008 40.7941 119.199 40.3214C119.389 39.8487 119.532 38.9978 119.675 37.7215C119.723 37.3906 119.866 37.1543 120.39 37.1543H123.344V37.2016Z" fill="#737373"/>
<path id="Vector_19" d="M126.154 37.2012C126.297 37.2012 126.344 37.2484 126.344 37.3903V38.6193H129.584C130.775 38.6193 131.251 39.092 131.251 39.9428V40.5101C131.251 41.4082 130.775 41.8336 129.584 41.8336H125.344C125.201 41.8336 125.105 41.7391 125.105 41.5973V37.3903C125.105 37.2484 125.153 37.2012 125.296 37.2012H126.154ZM126.344 39.5174V40.7937C126.344 40.8409 126.392 40.8882 126.439 40.8882H129.346C129.87 40.8882 130.06 40.6991 130.06 40.3682V40.0374C130.06 39.6592 129.87 39.5174 129.346 39.5174H126.344Z" fill="#737373"/>
<path id="Vector_20" d="M133.255 37.2012C133.398 37.2012 133.446 37.2484 133.446 37.3903V38.9974H137.352V37.3903C137.352 37.2484 137.4 37.2012 137.543 37.2012H138.4C138.543 37.2012 138.591 37.2484 138.591 37.3903V41.6918C138.591 41.8336 138.543 41.8809 138.4 41.8809H137.543C137.4 41.8809 137.352 41.8336 137.352 41.6918V39.9901H133.446V41.6918C133.446 41.8336 133.398 41.8809 133.255 41.8809H132.398C132.255 41.8809 132.207 41.8336 132.207 41.6918V37.3903C132.207 37.2484 132.255 37.2012 132.398 37.2012H133.255Z" fill="#737373"/>
<path id="Vector_21" d="M140.685 37.2012C140.828 37.2012 140.875 37.2484 140.875 37.3903V38.6193H144.115C145.306 38.6193 145.783 39.092 145.783 39.9428V40.5101C145.783 41.4082 145.306 41.8336 144.115 41.8336H139.875C139.732 41.8336 139.637 41.7391 139.637 41.5973V37.3903C139.637 37.2484 139.684 37.2012 139.827 37.2012H140.685ZM140.875 39.5174V40.7937C140.875 40.8409 140.923 40.8882 140.971 40.8882H143.877C144.401 40.8882 144.591 40.6991 144.591 40.3682V40.0374C144.591 39.6592 144.401 39.5174 143.877 39.5174H140.875ZM147.498 37.2012C147.641 37.2012 147.688 37.2484 147.688 37.3903V41.6918C147.688 41.8336 147.641 41.8809 147.498 41.8809H146.64C146.497 41.8809 146.45 41.8336 146.45 41.6918V37.3903C146.45 37.2484 146.497 37.2012 146.64 37.2012H147.498Z" fill="#737373"/>
<path id="Vector_22" d="M149.786 37.2014C149.929 37.2014 149.977 37.2486 149.977 37.3904V40.6521C149.977 40.6993 150.025 40.7466 150.025 40.7466H150.12C150.168 40.7466 150.215 40.7466 150.215 40.6993L152.788 37.7213C153.074 37.3432 153.264 37.2014 153.836 37.2014H154.312C154.836 37.2014 155.075 37.3904 155.075 38.0995V41.692C155.075 41.8338 155.027 41.8811 154.884 41.8811H154.027C153.884 41.8811 153.836 41.8338 153.836 41.692V38.4304C153.836 38.3831 153.836 38.3358 153.788 38.3358H153.693C153.645 38.3358 153.598 38.3358 153.598 38.3831L151.025 41.3611C150.692 41.7393 150.549 41.8811 149.977 41.8811H149.501C148.976 41.8811 148.738 41.692 148.738 40.9829V37.3904C148.738 37.2486 148.786 37.2014 148.929 37.2014H149.786ZM149.882 35.2633C149.882 35.1688 149.929 35.0742 150.025 35.0742C150.072 35.0742 150.168 35.1215 150.263 35.1688C150.453 35.3106 151.073 35.8305 151.93 35.8305C152.788 35.8305 153.407 35.3106 153.598 35.1688C153.693 35.1215 153.741 35.0742 153.788 35.0742C153.884 35.0742 153.931 35.1688 153.931 35.2633V35.6887C153.931 35.8305 153.931 35.9251 153.788 36.0196C153.502 36.256 152.693 36.6341 151.883 36.6341C151.073 36.6341 150.31 36.3032 149.977 36.0196C149.834 35.8778 149.786 35.7833 149.786 35.6887V35.2633H149.882Z" fill="#737373"/>
<path id="Vector_23" d="M164.459 37.2016C164.983 37.2016 165.174 37.4379 165.174 37.8633V40.8413H166.317C166.46 40.8413 166.508 40.8886 166.508 41.0304V43.2521C166.508 43.3939 166.46 43.4412 166.317 43.4412H165.603C165.46 43.4412 165.412 43.3939 165.412 43.2521V41.834H159.79V43.2521C159.79 43.3939 159.743 43.4412 159.6 43.4412H158.933C158.79 43.4412 158.742 43.3939 158.742 43.2521V41.0304C158.742 40.8886 158.79 40.8413 158.933 40.8413H159.647C159.886 40.8413 160.076 40.7941 160.267 40.3214C160.457 39.8487 160.6 38.9978 160.743 37.7215C160.791 37.3906 160.934 37.1543 161.458 37.1543H164.459V37.2016ZM163.935 40.8413V38.3833C163.935 38.2888 163.888 38.2415 163.792 38.2415H161.934C161.744 38.2415 161.744 38.336 161.696 38.4306C161.648 38.9033 161.458 40.0378 161.22 40.8413H163.935Z" fill="#737373"/>
<path id="Vector_24" d="M168.271 37.2012C168.414 37.2012 168.461 37.2484 168.461 37.3903V40.6519C168.461 40.6991 168.509 40.7464 168.509 40.7464H168.604C168.652 40.7464 168.7 40.7464 168.7 40.6991L171.272 37.7211C171.558 37.343 171.749 37.2012 172.32 37.2012H172.797C173.321 37.2012 173.559 37.3903 173.559 38.0993V41.6918C173.559 41.8336 173.511 41.8809 173.368 41.8809H172.511C172.368 41.8809 172.32 41.8336 172.32 41.6918V38.4302C172.32 38.3829 172.32 38.3356 172.273 38.3356H172.177C172.13 38.3356 172.082 38.3356 172.082 38.3829L169.509 41.3609C169.176 41.7391 169.033 41.8809 168.461 41.8809H167.985C167.461 41.8809 167.223 41.6918 167.223 40.9828V37.3903C167.223 37.2484 167.27 37.2012 167.413 37.2012H168.271Z" fill="#737373"/>
<path id="Vector_25" d="M179.848 37.2016C180.372 37.2016 180.562 37.4379 180.562 37.8633V41.6449C180.562 41.7867 180.515 41.834 180.372 41.834H179.514C179.371 41.834 179.323 41.7867 179.323 41.6449V38.3833C179.323 38.2888 179.276 38.2415 179.181 38.2415H177.323C177.132 38.2415 177.132 38.336 177.084 38.4306C176.989 38.9033 176.846 40.2741 176.513 41.0304C176.274 41.5504 175.989 41.834 175.274 41.834H174.464C174.369 41.834 174.273 41.7867 174.273 41.6449V41.0304C174.273 40.8886 174.321 40.8413 174.464 40.8413H175.083C175.322 40.8413 175.512 40.7941 175.703 40.3214C175.893 39.8487 176.036 38.9978 176.179 37.7215C176.227 37.3906 176.37 37.1543 176.894 37.1543H179.848V37.2016Z" fill="#737373"/>
<path id="Vector_26" d="M186.042 37.2016C187.233 37.2016 187.519 37.5797 187.519 38.6197V39.4232C187.519 39.8014 187.376 39.8959 187.043 39.8959H182.707V40.085C182.707 40.605 182.898 40.8413 183.66 40.8413H187.233C187.329 40.8413 187.376 40.8886 187.376 40.9831V41.6922C187.376 41.7867 187.329 41.834 187.233 41.834H183.517C181.993 41.834 181.469 41.3613 181.469 40.1323V38.9033C181.469 37.6743 181.945 37.1543 183.517 37.1543L186.042 37.2016ZM182.707 39.0924H186.185C186.281 39.0924 186.328 39.0451 186.328 38.9505V38.5724C186.328 38.2415 186.185 38.0997 185.804 38.0997H183.66C182.898 38.0997 182.707 38.336 182.707 38.856V39.0924Z" fill="#737373"/>
<path id="Vector_27" d="M192.853 37.2016C194.378 37.2016 194.902 37.6743 194.902 38.9505V40.1796C194.902 41.4086 194.426 41.8813 192.853 41.8813H189.614V43.583C189.614 43.7248 189.566 43.7721 189.423 43.7721H188.566C188.423 43.7721 188.375 43.7248 188.375 43.583V38.9033C188.375 37.6743 188.851 37.1543 190.424 37.1543L192.853 37.2016ZM189.614 40.8413H192.71C193.473 40.8413 193.663 40.605 193.663 39.8959V39.1396C193.663 38.4306 193.473 38.1942 192.71 38.1942H190.567C189.852 38.1942 189.614 38.4306 189.614 39.1396V40.8413Z" fill="#737373"/>
</g>
</g>
<defs>
<clipPath id="clip0_817_5758">
<rect width="198" height="58" fill="white"/>
</clipPath>
</defs>
</svg>
