<svg width="12" height="13" viewBox="0 0 12 13" fill="none" xmlns="http://www.w3.org/2000/svg">
<path d="M11.1657 10.0102L9.90331 9.17102L8.78109 8.42523C8.56451 8.28156 8.27346 8.32866 8.11357 8.53329L7.41916 9.42334C7.27 9.61648 7.00167 9.67198 6.78777 9.5539C6.31659 9.29258 5.7594 9.04653 4.53001 7.81921C3.30061 6.59188 3.05226 6.03792 2.79016 5.56814C2.67173 5.35487 2.72739 5.08733 2.92111 4.93863L3.81381 4.24628C4.01902 4.08689 4.06628 3.7967 3.92218 3.58074L3.19715 2.49631L2.33252 1.20319C2.18536 0.983088 1.89076 0.917008 1.66324 1.05305L0.666083 1.64949C0.396599 1.80779 0.198505 2.06342 0.112836 2.36337C-0.159851 3.35463 -0.214829 5.54131 3.30001 9.04574C6.81485 12.5502 9.00783 12.4952 10.002 12.2233C10.3029 12.1379 10.5593 11.9404 10.718 11.6717L11.3162 10.6775C11.4527 10.4506 11.3864 10.1569 11.1657 10.0102Z" fill="#CA0100"/>
</svg>
